<?xml version="1.0" encoding="UTF-8" standalone="no"?><!DOCTYPE svg PUBLIC "-//W3C//DTD SVG 1.1//EN" "http://www.w3.org/Graphics/SVG/1.1/DTD/svg11.dtd"><svg width="100%" height="100%" viewBox="0 0 160 160" version="1.1" xmlns="http://www.w3.org/2000/svg" xmlns:xlink="http://www.w3.org/1999/xlink" xml:space="preserve" xmlns:serif="http://www.serif.com/" style="fill-rule:evenodd;clip-rule:evenodd;stroke-linejoin:round;stroke-miterlimit:1.41421;"><path d="M75.72,1.683c2.663,-1.577 5.918,-1.577 8.56,0c12.561,7.502 49.367,29.041 66.528,38.847c5.375,3.072 8.692,8.788 8.692,14.979c0,22.248 0,74.473 0,95.365c0,4.764 -3.862,8.626 -8.626,8.626c-27.947,0 -113.801,0 -141.748,0c-4.764,0 -8.626,-3.862 -8.626,-8.626c0,-20.892 0,-73.117 0,-95.365c0,-6.191 3.317,-11.907 8.692,-14.979c17.161,-9.806 53.941,-31.389 66.528,-38.847Zm-50.694,141.917c15.394,0 94.554,0 109.948,0c4.764,0 8.626,-3.862 8.626,-8.626c0,-18.07 0,-59.755 0,-74.06c0,-3.082 -1.644,-5.929 -4.313,-7.47c-11.549,-6.668 -43.425,-26.854 -54.974,-33.522c-2.669,-1.541 -5.957,-1.541 -8.626,0c-11.549,6.668 -43.425,26.854 -54.974,33.522c-2.669,1.541 -4.313,4.388 -4.313,7.47c0,14.305 0,55.99 0,74.06c0,4.764 3.862,8.626 8.626,8.626Zm94.434,-50.396c0,-6.263 -3.981,-11.586 -9.505,-13.546c2.328,-2.56 3.761,-5.965 3.761,-9.714c0,-7.916 -6.35,-14.359 -14.161,-14.359c-2.861,0 -5.523,0.871 -7.752,2.357c-0.36,-0.555 -0.756,-1.081 -1.188,-1.581c7.151,-9.071 3.586,-19.375 3.42,-19.837c-0.434,-1.213 -1.381,-1.294 -2.587,-1.747c-0.493,-0.185 -12.117,-4.398 -21.484,5.129c-6.557,6.676 -5.61,12.796 -3.462,17.078c-1.839,-0.888 -3.889,-1.401 -6.059,-1.401c-7.811,0 -14.162,6.441 -14.162,14.359c0,3.749 1.434,7.153 3.762,9.714c-5.522,1.96 -9.503,7.285 -9.503,13.548c0,6.357 4.112,11.757 9.784,13.629c-1.107,2.045 -1.739,4.389 -1.739,6.881c0,7.914 6.351,14.355 14.16,14.355c1.258,0 2.475,-0.184 3.637,-0.498c1.677,6.027 7.14,10.464 13.618,10.464c6.478,0 11.941,-4.437 13.618,-10.466c1.164,0.314 2.379,0.498 3.639,0.498c7.807,0 14.158,-6.441 14.158,-14.355c0,-2.492 -0.632,-4.836 -1.739,-6.881c5.672,-1.872 9.784,-7.269 9.784,-13.627Zm-39.46,24.937c2.972,0 5.385,2.505 5.385,5.589c0,3.084 -2.413,5.588 -5.385,5.588c-2.972,0 -5.385,-2.504 -5.385,-5.588c0,-3.084 2.413,-5.589 5.385,-5.589Zm-17.256,-10.001c2.971,0 5.384,2.504 5.384,5.588c0,3.084 -2.413,5.589 -5.384,5.589c-2.972,0 -5.385,-2.505 -5.385,-5.589c0,-3.084 2.413,-5.588 5.385,-5.588Zm34.519,0c2.972,0 5.385,2.504 5.385,5.588c0,3.084 -2.413,5.589 -5.385,5.589c-2.972,0 -5.384,-2.505 -5.384,-5.589c0,-3.084 2.412,-5.588 5.384,-5.588Zm-17.263,-11.643c2.972,0 5.385,2.504 5.385,5.588c0,3.085 -2.413,5.589 -5.385,5.589c-2.972,0 -5.385,-2.504 -5.385,-5.589c0,-3.084 2.413,-5.588 5.385,-5.588Zm25.299,-8.887c2.972,0 5.385,2.504 5.385,5.589c0,3.084 -2.413,5.588 -5.385,5.588c-2.972,0 -5.384,-2.504 -5.384,-5.588c0,-3.085 2.412,-5.589 5.384,-5.589Zm-50.603,0c2.972,0 5.384,2.504 5.384,5.589c0,3.084 -2.412,5.588 -5.384,5.588c-2.972,0 -5.385,-2.504 -5.385,-5.588c0,-3.085 2.413,-5.589 5.385,-5.589Zm15.525,-7.41c2.972,0 5.385,2.504 5.385,5.589c0,3.084 -2.413,5.588 -5.385,5.588c-2.971,0 -5.384,-2.504 -5.384,-5.588c0,-3.085 2.413,-5.589 5.384,-5.589Zm19.578,0c2.972,0 5.385,2.504 5.385,5.589c0,3.084 -2.413,5.588 -5.385,5.588c-2.972,0 -5.384,-2.504 -5.384,-5.588c0,-3.085 2.412,-5.589 5.384,-5.589Zm9.761,-15.841c2.972,0 5.384,2.504 5.384,5.588c0,3.085 -2.412,5.589 -5.384,5.589c-2.972,0 -5.385,-2.504 -5.385,-5.589c0,-3.084 2.413,-5.588 5.385,-5.588Zm-39.12,0c2.972,0 5.385,2.504 5.385,5.588c0,3.085 -2.413,5.589 -5.385,5.589c-2.971,0 -5.384,-2.504 -5.384,-5.589c0,-3.084 2.413,-5.588 5.384,-5.588Zm19.56,-4.141c2.972,0 5.385,2.504 5.385,5.589c0,3.084 -2.413,5.588 -5.385,5.588c-2.972,0 -5.385,-2.504 -5.385,-5.588c0,-3.085 2.413,-5.589 5.385,-5.589Zm-3.779,-15.041c2.867,-2.918 6.112,-3.604 8.527,-3.604c0.542,0 1.042,0.035 1.485,0.085c0.287,2.447 0.1,6.548 -3.249,10.146c-0.182,-0.04 -0.375,-0.042 -0.559,-0.075c-0.209,-0.035 -0.417,-0.059 -0.627,-0.083c-0.507,-0.064 -1.009,-0.114 -1.524,-0.123c-0.057,0 -0.112,0.004 -0.167,0.004c-2.023,-0.006 -4.075,0.384 -5.93,1.237c-0.684,-1.502 -1.175,-4.31 2.044,-7.587Z" style="fill:#43a047;"/></svg>