<?xml version="1.0" encoding="UTF-8" standalone="no"?><!DOCTYPE svg PUBLIC "-//W3C//DTD SVG 1.1//EN" "http://www.w3.org/Graphics/SVG/1.1/DTD/svg11.dtd"><svg width="100%" height="100%" viewBox="0 0 1920 1905" version="1.1" xmlns="http://www.w3.org/2000/svg" xmlns:xlink="http://www.w3.org/1999/xlink" xml:space="preserve" xmlns:serif="http://www.serif.com/" style="fill-rule:evenodd;clip-rule:evenodd;stroke-linejoin:round;stroke-miterlimit:1.41421;"><path d="M909.234,18.437c31.457,-17.975 70.075,-17.975 101.532,0c150.688,86.108 597.551,341.458 801.123,457.785c63.761,36.435 103.111,104.242 103.111,177.68c0,263.917 0,895.368 0,1143.2c0,56.51 -45.811,102.321 -102.321,102.321c-331.528,0 -1373.83,0 -1705.36,0c-56.51,0 -102.321,-45.811 -102.321,-102.321c0,-247.837 0,-879.288 0,-1143.2c0,-73.438 39.35,-141.245 103.111,-177.68c203.572,-116.327 650.435,-371.677 801.123,-457.785Zm153.087,1413.83l0,262.516c0,0 363.104,0 545.715,0c56.51,0 102.321,-45.81 102.321,-102.321c0,-214.358 0,-704.751 0,-874.44c0,-36.556 -19.502,-70.335 -51.161,-88.613c-136.998,-79.096 -511.037,-295.048 -648.035,-374.144c-31.659,-18.278 -70.663,-18.278 -102.322,0c-136.998,79.096 -511.037,295.048 -648.035,374.144c-31.659,18.278 -51.161,52.057 -51.161,88.613c0,169.689 0,660.082 0,874.44c0,56.511 45.811,102.321 102.321,102.321c182.611,0 545.715,0 545.715,0l0,-262.516c-127.845,23.379 -264.707,-14.316 -363.475,-113.084c-125.91,-125.91 -152.569,-313.728 -79.975,-465.852l1.785,-0.846c151.806,-71.539 338.65,-44.598 464.068,80.82c33.786,33.786 60.426,72.03 79.918,112.846c19.492,-40.816 46.132,-79.06 79.918,-112.846c125.418,-125.418 312.262,-152.359 464.068,-80.82l1.785,0.846c72.594,152.124 45.935,339.942 -79.975,465.852c-98.768,98.768 -235.63,136.463 -363.475,113.084Zm-261.382,-193.733c4.418,-59.13 -15.962,-119.772 -61.138,-164.948c-45.176,-45.176 -105.818,-65.556 -164.948,-61.137l-1.397,0.109c-4.847,59.57 15.497,120.813 61.028,166.345c45.532,45.531 106.775,65.875 166.346,61.028l0.109,-1.397Zm318.122,0c-4.418,-59.13 15.962,-119.772 61.138,-164.948c45.176,-45.176 105.818,-65.556 164.948,-61.137l1.397,0.109c4.847,59.57 -15.497,120.813 -61.028,166.345c-45.532,45.531 -106.775,65.875 -166.346,61.028l-0.109,-1.397Z" style="fill:#009345;"/></svg>