<?xml version="1.0" encoding="UTF-8" standalone="no"?><!DOCTYPE svg PUBLIC "-//W3C//DTD SVG 1.1//EN" "http://www.w3.org/Graphics/SVG/1.1/DTD/svg11.dtd"><svg width="100%" height="100%" viewBox="0 0 1920 1497" version="1.1" xmlns="http://www.w3.org/2000/svg" xmlns:xlink="http://www.w3.org/1999/xlink" xml:space="preserve" xmlns:serif="http://www.serif.com/" style="fill-rule:evenodd;clip-rule:evenodd;stroke-linejoin:round;stroke-miterlimit:1.41421;"><path d="M931.843,11.356c17.447,-9.97 38.867,-9.97 56.314,0c83.58,47.76 331.434,189.391 444.346,253.912c35.365,20.209 57.191,57.818 57.191,98.551c0,146.383 0,496.618 0,634.082c0,31.344 -25.409,56.753 -56.753,56.753c-183.883,0 -761.999,0 -945.882,0c-31.344,0 -56.753,-25.409 -56.753,-56.753c0,-137.464 0,-487.699 0,-634.082c0,-40.733 21.826,-78.342 57.191,-98.551c112.912,-64.521 360.766,-206.152 444.346,-253.912Zm84.91,784.187l0,145.605c0,0 201.396,0 302.682,0c31.344,0 56.753,-25.409 56.753,-56.753c0,-118.894 0,-390.892 0,-485.011c0,-20.276 -10.817,-39.011 -28.377,-49.149c-75.986,-43.871 -283.448,-163.649 -359.435,-207.52c-17.559,-10.138 -39.193,-10.138 -56.752,0c-75.987,43.871 -283.449,163.649 -359.435,207.52c-17.56,10.138 -28.377,28.873 -28.377,49.149c0,94.119 0,366.117 0,485.011c0,31.344 25.409,56.753 56.753,56.753c101.286,0 302.682,0 302.682,0l0,-145.605c-70.909,12.967 -146.82,-7.941 -201.602,-62.723c-69.837,-69.836 -84.623,-174.01 -44.358,-258.386l0.989,-0.47c84.2,-39.678 187.834,-24.736 257.397,44.828c18.74,18.74 33.516,39.952 44.327,62.59c10.811,-22.638 25.587,-43.85 44.327,-62.59c69.563,-69.564 173.197,-84.506 257.397,-44.828l0.989,0.47c40.265,84.376 25.479,188.55 -44.358,258.386c-54.782,54.782 -130.693,75.69 -201.602,62.723Zm-144.977,-107.455c2.451,-32.797 -8.853,-66.432 -33.91,-91.489c-25.057,-25.057 -58.692,-36.361 -91.489,-33.91l-0.775,0.06c-2.688,33.042 8.596,67.01 33.85,92.264c25.254,25.255 59.222,36.538 92.264,33.85l0.06,-0.775Zm176.448,0c-2.451,-32.797 8.853,-66.432 33.91,-91.489c25.057,-25.057 58.692,-36.361 91.489,-33.91l0.775,0.06c2.688,33.042 -8.596,67.01 -33.85,92.264c-25.254,25.255 -59.222,36.538 -92.264,33.85l-0.06,-0.775Z" style="fill:#009345;"/><path d="M288.83,1407.11c0.003,30.563 -18.596,58.05 -46.967,69.414c-2.662,0.996 -5.378,2.017 -8.17,3.001c-24.196,8.531 -50.718,12.796 -79.566,12.796c-44.358,0 -79.798,-13.571 -106.32,-40.713c-26.522,-27.142 -40.713,-64.909 -42.574,-113.3l-0.233,-29.313c0,-33.346 5.894,-62.466 17.681,-87.359c11.788,-24.894 28.655,-44.048 50.601,-57.464c21.946,-13.416 47.344,-20.124 76.192,-20.124c42.187,0 74.951,9.655 98.294,28.964c12.026,9.949 21.469,22.419 28.328,37.411c4.912,10.673 4.05,23.113 -2.287,33.007c-6.338,9.893 -17.278,15.878 -29.027,15.878c-2.826,0.133 -5.621,0.133 -8.324,0.133c-14.151,-0.003 -26.874,-8.62 -32.127,-21.76c-3.101,-7.966 -7.296,-14.197 -12.515,-18.721c-9.306,-8.065 -22.489,-12.097 -39.55,-12.097c-20.473,0 -36.293,8.685 -47.46,26.056c-11.167,17.371 -16.828,42.187 -16.983,74.447l0,20.473c0,33.812 5.777,59.209 17.332,76.192c11.555,16.984 29.74,25.475 54.556,25.475c10.694,0 20.013,-1.198 27.958,-3.595c11.176,-3.98 18.641,-14.561 18.641,-26.425c0.861,-8.566 0.861,-18.903 0.861,-26.429c0,-5.7 -4.621,-10.321 -10.32,-10.321c-5.217,0 -11.827,0 -18.412,0c-7.436,0 -14.566,-2.953 -19.823,-8.211c-5.258,-5.257 -8.211,-12.388 -8.211,-19.823c0,0 0,0 0,0c0,-7.435 2.953,-14.565 8.211,-19.823c5.257,-5.257 12.388,-8.211 19.823,-8.211c23.084,0 55.772,0 79.584,0c8.171,0 16.007,3.246 21.784,9.023c5.777,5.778 9.023,13.613 9.023,21.784c0,20.524 0,47.659 0,69.635Zm180.282,-124.667c-0.116,6.097 -2.733,11.879 -7.238,15.99c-4.504,4.111 -10.499,6.192 -16.582,5.753c-1.516,-0.109 -2.452,-0.177 -2.452,-0.177c-2.739,0 -5.368,0.096 -7.888,0.287c-22.269,1.767 -39.438,20.353 -39.438,42.692c-0.135,25.904 -0.135,71.989 -0.135,105.117c0,10.393 -4.128,20.36 -11.477,27.708c-7.349,7.349 -17.316,11.478 -27.708,11.478c-0.011,0 -0.021,0 -0.031,0c-21.642,0 -39.186,-17.544 -39.186,-39.186c0,-30.235 0,-73.515 0,-113.494c0,-58.974 47.38,-107.006 106.348,-107.813c10.893,-0.324 19.811,-0.538 24.865,-0.538c0.002,0 0.003,0 0.005,0c5.774,0 11.305,2.323 15.349,6.445c4.043,4.122 6.259,9.697 6.149,15.47c-0.178,9.271 -0.393,20.488 -0.581,30.268Zm595.107,-52.183c5.988,0 10.978,4.587 11.481,10.554c0.001,0.006 0.001,0.012 0.002,0.018c0.288,3.394 2.468,6.334 5.632,7.595c3.164,1.261 6.769,0.627 9.313,-1.638c15.535,-13.65 35.126,-20.384 58.61,-20.384c26.212,0 45.793,7.832 58.744,23.497c12.95,15.665 19.658,39.24 20.124,70.725c0,0 0,80.958 0,131.355c0,21.71 -17.6,39.309 -39.309,39.309c-0.006,0 -0.012,0 -0.017,0c-10.426,0 -20.424,-4.142 -27.796,-11.514c-7.372,-7.371 -11.513,-17.37 -11.513,-27.795c0,-49.484 0,-128.098 0,-128.098c0,-12.718 -2.559,-22.062 -7.678,-28.034c-5.118,-5.971 -14.424,-8.957 -27.917,-8.957c-12.955,0 -23.094,4.306 -30.418,12.917c-2.226,2.699 -3.444,6.088 -3.444,9.586c-0.337,18.921 -0.337,95.142 -0.337,142.709c0,21.642 -17.545,39.186 -39.186,39.186c-0.01,0 -0.021,0 -0.031,0c-21.642,0 -39.186,-17.544 -39.186,-39.186c0,-52.767 0,-145.467 0,-192.579c0,-7.761 3.084,-15.205 8.572,-20.694c5.489,-5.488 12.933,-8.572 20.694,-8.572c11.881,0 24.852,0 33.66,0Zm324.093,140.875c-2.675,-5.026 -7.904,-8.166 -13.597,-8.166c-5.656,0 -13.032,0 -19.549,0c-4.086,0 -8.004,1.623 -10.892,4.512c-2.889,2.888 -4.512,6.806 -4.512,10.891c0,17.727 0,47.553 0,72.1c0,10.826 -4.3,21.208 -11.955,28.863c-7.655,7.655 -18.038,11.956 -28.863,11.956c-0.008,0 -0.015,0 -0.022,0c-10.826,0 -21.208,-4.301 -28.863,-11.956c-7.655,-7.655 -11.956,-18.037 -11.956,-28.863c0,-70.345 0,-212.891 0,-275.618c0,-17.014 13.793,-30.806 30.807,-30.806c39.372,0 102.5,0 102.5,0c40.171,0 71.578,8.908 94.222,26.725c22.645,17.817 33.967,42.994 33.967,75.531c0,23.55 -4.769,43.072 -14.308,58.565c-7.412,12.038 -18.078,22.3 -31.998,30.784c-6.898,4.208 -9.319,13.064 -5.52,20.196c9.868,18.842 28.6,54.013 44.464,83.801c5.798,10.888 5.461,24.019 -0.889,34.595c-6.349,10.576 -17.781,17.046 -30.117,17.046c-2.726,0 -5.366,0 -7.87,0c-12.984,0 -24.909,-7.162 -31.009,-18.624c-15.105,-28.379 -43.266,-81.288 -54.04,-101.532Zm526.688,79.445c0,22.484 -18.227,40.711 -40.711,40.711c-0.001,0 -0.003,0 -0.005,0c-22.484,0 -40.711,-18.227 -40.711,-40.711c0,-66.821 0,-199 0,-265.822c0,-22.484 18.227,-40.71 40.711,-40.71c0.002,0 0.004,0 0.005,0c22.484,0 40.711,18.226 40.711,40.71c0,66.822 0,199.001 0,265.822Zm-1049.24,40.711c-38.62,0 -69.872,-11.516 -93.757,-34.548c-23.886,-23.032 -35.828,-53.005 -35.828,-89.919l0,-6.514c0,-25.746 4.769,-48.468 14.308,-68.166c9.538,-19.697 23.458,-34.935 41.76,-45.715c18.302,-10.779 40.015,-16.169 65.141,-16.169c35.363,0 63.28,10.973 83.753,32.92c20.473,21.946 30.71,52.539 30.71,91.779c0,0 0,0.003 0,0.01c0,16.826 -13.641,30.467 -30.468,30.467c-30.298,0 -76.058,0 -103.115,0c-5.873,-0.002 -11.237,3.336 -13.828,8.606c-2.592,5.27 -1.962,11.555 1.626,16.206c2.589,2.999 5.27,5.882 8.29,8.457c9.461,8.065 21.714,12.097 36.758,12.097c15.852,0 29.489,-3.544 40.911,-10.632c11.339,-7.121 26.189,-4.818 34.838,5.404c0.024,-0.015 0.027,-0.012 0.029,-0.009c5.653,6.678 8.161,15.464 6.884,24.12c-1.277,8.655 -6.215,16.343 -13.555,21.104c-5.237,2.934 -10.718,5.878 -16.645,8.52c-17.913,7.988 -37.184,11.982 -57.812,11.982Zm-260.55,0c-38.619,0 -69.872,-11.516 -93.757,-34.548c-23.885,-23.032 -35.828,-53.005 -35.828,-89.919l0,-6.514c0,-25.746 4.77,-48.468 14.308,-68.166c9.539,-19.697 23.459,-34.935 41.76,-45.715c18.302,-10.779 40.016,-16.169 65.142,-16.169c35.362,0 63.28,10.973 83.753,32.92c20.473,21.946 30.709,52.539 30.709,91.779c0,0 0,0.003 0,0.01c0,16.826 -13.64,30.467 -30.467,30.467c-30.299,0 -76.058,0 -103.116,0c-5.873,-0.002 -11.236,3.336 -13.828,8.606c-2.592,5.27 -1.961,11.555 1.626,16.206c2.59,2.999 5.27,5.882 8.291,8.457c9.461,8.065 21.713,12.097 36.758,12.097c15.852,0 29.489,-3.544 40.911,-10.632c11.338,-7.121 26.189,-4.818 34.838,5.404c0.024,-0.015 0.026,-0.012 0.029,-0.009c5.653,6.678 8.16,15.464 6.884,24.12c-1.277,8.655 -6.215,16.343 -13.556,21.104c-5.237,2.934 -10.718,5.878 -16.644,8.52c-17.914,7.988 -37.185,11.982 -57.813,11.982Zm1035.25,-123.436c-4.085,0 -8.003,1.622 -10.892,4.511c-2.889,2.889 -4.511,6.807 -4.511,10.892c0,16.739 0,44.179 0,67.214c0,10.826 -4.301,21.208 -11.956,28.863c-7.655,7.655 -18.037,11.956 -28.863,11.956c-0.007,0 -0.015,0 -0.022,0c-10.826,0 -21.208,-4.301 -28.863,-11.956c-7.655,-7.655 -11.956,-18.037 -11.956,-28.863c0,-70.345 0,-212.891 0,-275.618c0,-17.014 13.793,-30.806 30.807,-30.806c39.891,0 104.362,0 104.362,0c25.901,0 48.817,4.769 68.747,14.308c19.93,9.538 35.362,23.109 46.297,40.713c10.934,17.603 16.401,37.572 16.401,59.907c0,33.036 -11.826,59.441 -35.478,79.216c-23.653,19.775 -56.107,29.663 -97.363,29.663c0,0 -21.342,0 -36.71,0Zm-783.539,-77.106c-18.753,0 -31.295,10.144 -37.626,30.434c-1.16,3.5 -0.569,7.344 1.589,10.333c2.159,2.989 5.621,4.759 9.308,4.759c17.481,0.073 46.364,0.073 58.837,0.073c3.339,-0.001 6.046,-2.707 6.046,-6.046c0,-0.002 0,-0.003 0,-0.003c0.31,-12.563 -2.869,-22.296 -9.538,-29.198c-6.67,-6.901 -16.208,-10.352 -28.616,-10.352Zm-260.549,0c-18.754,0 -31.296,10.144 -37.627,30.434c-1.16,3.5 -0.568,7.344 1.59,10.333c2.158,2.989 5.621,4.759 9.308,4.759c17.481,0.073 46.363,0.073 58.837,0.073c3.339,-0.001 6.046,-2.707 6.046,-6.046c0,-0.002 0,-0.003 0,-0.003c0.31,-12.563 -2.87,-22.296 -9.539,-29.198c-6.669,-6.901 -16.208,-10.352 -28.615,-10.352Zm1028.68,-1.345c0,4.085 1.623,8.003 4.511,10.892c2.889,2.888 6.807,4.511 10.892,4.511c15.808,0 38.106,0 38.106,0c15.82,0 27.879,-3.955 36.176,-11.865c8.298,-7.91 12.447,-19.077 12.447,-33.501c0,-15.82 -4.265,-28.461 -12.796,-37.922c-8.53,-9.461 -20.162,-14.269 -34.897,-14.424c0,0 -22.939,0 -39.036,0c-4.085,0 -8.003,1.623 -10.892,4.512c-2.888,2.888 -4.511,6.806 -4.511,10.891c0,18.291 0,48.615 0,66.906Zm-285.293,-4.653c0,4.085 1.623,8.003 4.512,10.892c2.888,2.888 6.806,4.511 10.892,4.511c15.22,0 36.244,0 36.244,0c15.51,0 27.181,-4.081 35.014,-12.245c7.832,-8.163 11.748,-19.552 11.748,-34.168c0,-14.616 -3.955,-26.083 -11.865,-34.401c-7.91,-8.318 -19.542,-12.477 -34.897,-12.477c0,0 -21.024,0 -36.244,0c-4.086,0 -8.004,1.622 -10.892,4.511c-2.889,2.889 -4.512,6.807 -4.512,10.892c0,17.293 0,45.191 0,62.485Z" style="fill:#009345;"/></svg>