<?xml version="1.0" encoding="UTF-8" standalone="no"?><!DOCTYPE svg PUBLIC "-//W3C//DTD SVG 1.1//EN" "http://www.w3.org/Graphics/SVG/1.1/DTD/svg11.dtd"><svg width="100%" height="100%" viewBox="0 0 692 160" version="1.1" xmlns="http://www.w3.org/2000/svg" xmlns:xlink="http://www.w3.org/1999/xlink" xml:space="preserve" xmlns:serif="http://www.serif.com/" style="fill-rule:evenodd;clip-rule:evenodd;stroke-linejoin:round;stroke-miterlimit:1.41421;"><g><path d="M77.812,1.683c2.663,-1.577 5.918,-1.577 8.56,0c12.561,7.502 49.367,29.041 66.528,38.847c5.375,3.072 8.692,8.788 8.692,14.979c0,22.248 0,74.473 0,95.365c0,4.764 -3.862,8.626 -8.626,8.626c-27.947,0 -113.801,0 -141.748,0c-4.764,0 -8.626,-3.862 -8.626,-8.626c0,-20.892 0,-73.117 0,-95.365c0,-6.191 3.317,-11.907 8.692,-14.979c17.161,-9.806 53.941,-31.389 66.528,-38.847Zm-50.694,141.917c15.394,0 94.554,0 109.948,0c4.764,0 8.626,-3.862 8.626,-8.626c0,-18.07 0,-59.755 0,-74.06c0,-3.082 -1.644,-5.929 -4.313,-7.47c-11.549,-6.668 -43.425,-26.854 -54.974,-33.522c-2.669,-1.541 -5.957,-1.541 -8.626,0c-11.549,6.668 -43.425,26.854 -54.974,33.522c-2.669,1.541 -4.313,4.388 -4.313,7.47c0,14.305 0,55.99 0,74.06c0,4.764 3.862,8.626 8.626,8.626Zm94.434,-50.396c0,-6.263 -3.981,-11.586 -9.505,-13.546c2.328,-2.56 3.761,-5.965 3.761,-9.714c0,-7.916 -6.35,-14.359 -14.161,-14.359c-2.861,0 -5.523,0.871 -7.752,2.357c-0.36,-0.555 -0.756,-1.081 -1.188,-1.581c7.151,-9.071 3.586,-19.375 3.42,-19.837c-0.434,-1.213 -1.381,-1.294 -2.587,-1.747c-0.493,-0.185 -12.117,-4.398 -21.484,5.129c-6.557,6.676 -5.61,12.796 -3.462,17.078c-1.839,-0.888 -3.889,-1.401 -6.059,-1.401c-7.811,0 -14.162,6.441 -14.162,14.359c0,3.749 1.434,7.153 3.762,9.714c-5.522,1.96 -9.503,7.285 -9.503,13.548c0,6.357 4.112,11.757 9.784,13.629c-1.107,2.045 -1.739,4.389 -1.739,6.881c0,7.914 6.351,14.355 14.16,14.355c1.258,0 2.475,-0.184 3.637,-0.498c1.677,6.027 7.14,10.464 13.618,10.464c6.478,0 11.941,-4.437 13.618,-10.466c1.164,0.314 2.379,0.498 3.639,0.498c7.807,0 14.158,-6.441 14.158,-14.355c0,-2.492 -0.632,-4.836 -1.739,-6.881c5.672,-1.872 9.784,-7.269 9.784,-13.627Zm-39.46,24.937c2.972,0 5.385,2.505 5.385,5.589c0,3.084 -2.413,5.588 -5.385,5.588c-2.972,0 -5.385,-2.504 -5.385,-5.588c0,-3.084 2.413,-5.589 5.385,-5.589Zm-17.256,-10.001c2.971,0 5.384,2.504 5.384,5.588c0,3.084 -2.413,5.589 -5.384,5.589c-2.972,0 -5.385,-2.505 -5.385,-5.589c0,-3.084 2.413,-5.588 5.385,-5.588Zm34.519,0c2.972,0 5.385,2.504 5.385,5.588c0,3.084 -2.413,5.589 -5.385,5.589c-2.972,0 -5.384,-2.505 -5.384,-5.589c0,-3.084 2.412,-5.588 5.384,-5.588Zm-17.263,-11.643c2.972,0 5.385,2.504 5.385,5.588c0,3.085 -2.413,5.589 -5.385,5.589c-2.972,0 -5.385,-2.504 -5.385,-5.589c0,-3.084 2.413,-5.588 5.385,-5.588Zm25.299,-8.887c2.972,0 5.385,2.504 5.385,5.589c0,3.084 -2.413,5.588 -5.385,5.588c-2.972,0 -5.384,-2.504 -5.384,-5.588c0,-3.085 2.412,-5.589 5.384,-5.589Zm-50.603,0c2.972,0 5.384,2.504 5.384,5.589c0,3.084 -2.412,5.588 -5.384,5.588c-2.972,0 -5.385,-2.504 -5.385,-5.588c0,-3.085 2.413,-5.589 5.385,-5.589Zm15.525,-7.41c2.972,0 5.385,2.504 5.385,5.589c0,3.084 -2.413,5.588 -5.385,5.588c-2.971,0 -5.384,-2.504 -5.384,-5.588c0,-3.085 2.413,-5.589 5.384,-5.589Zm19.578,0c2.972,0 5.385,2.504 5.385,5.589c0,3.084 -2.413,5.588 -5.385,5.588c-2.972,0 -5.384,-2.504 -5.384,-5.588c0,-3.085 2.412,-5.589 5.384,-5.589Zm9.761,-15.841c2.972,0 5.384,2.504 5.384,5.588c0,3.085 -2.412,5.589 -5.384,5.589c-2.972,0 -5.385,-2.504 -5.385,-5.589c0,-3.084 2.413,-5.588 5.385,-5.588Zm-39.12,0c2.972,0 5.385,2.504 5.385,5.588c0,3.085 -2.413,5.589 -5.385,5.589c-2.971,0 -5.384,-2.504 -5.384,-5.589c0,-3.084 2.413,-5.588 5.384,-5.588Zm19.56,-4.141c2.972,0 5.385,2.504 5.385,5.589c0,3.084 -2.413,5.588 -5.385,5.588c-2.972,0 -5.385,-2.504 -5.385,-5.588c0,-3.085 2.413,-5.589 5.385,-5.589Zm-3.779,-15.041c2.867,-2.918 6.112,-3.604 8.527,-3.604c0.542,0 1.042,0.035 1.484,0.085c0.288,2.447 0.101,6.548 -3.248,10.146c-0.182,-0.04 -0.375,-0.042 -0.559,-0.075c-0.209,-0.035 -0.417,-0.059 -0.627,-0.083c-0.507,-0.064 -1.009,-0.114 -1.524,-0.123c-0.057,0 -0.112,0.004 -0.167,0.004c-2.023,-0.006 -4.075,0.384 -5.93,1.237c-0.684,-1.502 -1.175,-4.31 2.044,-7.587Z" style="fill:#43a047;"/><path d="M267.549,129.424c0,3.006 -1.347,5.854 -3.671,7.759c-3.092,2.543 -6.887,4.63 -11.39,6.257c-6.489,2.346 -13.679,3.519 -21.572,3.519c-8.286,0 -15.554,-1.809 -21.802,-5.426c-6.248,-3.617 -11.07,-8.868 -14.468,-15.751c-3.398,-6.884 -5.141,-14.974 -5.229,-24.269l0,-6.511c0,-9.558 1.611,-17.834 4.834,-24.827c3.223,-6.993 7.87,-12.342 13.943,-16.047c6.072,-3.705 13.186,-5.558 21.341,-5.558c11.356,0 20.235,2.708 26.636,8.123c3.476,2.94 6.182,6.607 8.12,11.001c1.223,2.78 0.96,5.99 -0.7,8.535c-1.66,2.544 -4.492,4.078 -7.53,4.078c-0.001,0.029 -0.002,0.029 -0.003,0.029c-4.125,0 -7.851,-2.466 -9.463,-6.264c-0.999,-2.405 -2.363,-4.325 -4.071,-5.771c-3.003,-2.543 -7.135,-3.815 -12.397,-3.815c-6.708,0 -11.816,2.521 -15.324,7.563c-3.507,5.043 -5.283,12.54 -5.327,22.493l0,6.116c0,10.041 1.907,17.626 5.722,22.756c3.814,5.13 9.405,7.695 16.771,7.695c6.976,0 12.068,-1.4 15.274,-4.198c0.36,-0.33 0.566,-0.795 0.566,-1.283c0.01,-2.474 0.01,-10.449 0.01,-14.013c0,-0.966 -0.783,-1.749 -1.75,-1.749c-2.074,0 -5.664,0 -8.938,0c-4.014,0 -7.267,-3.254 -7.267,-7.267c0,0 0,-0.001 0,-0.001c0,-1.928 0.766,-3.776 2.128,-5.139c1.363,-1.362 3.211,-2.128 5.139,-2.128c6.187,0 15.094,0 21.672,0c4.83,0 8.746,3.916 8.746,8.746c0,7.946 0,19.319 0,25.347Z" style="fill:#43a047;fill-rule:nonzero;"/><path d="M312.862,86.249c-0.056,3.796 -3.149,6.845 -6.946,6.845l-0.002,0.001c-7.808,0 -14.138,6.331 -14.138,14.139c0,7.985 0,21.241 0,30.223c0,5.248 -4.255,9.502 -9.502,9.502c-0.001,0 -0.002,0 -0.003,0c-5.248,0 -9.502,-4.254 -9.502,-9.502c0,-8.077 0,-20.13 0,-31.443c0,-17.288 13.939,-31.343 31.227,-31.485c1.263,-0.029 2.323,-0.046 3.103,-0.046c0.001,0 0.001,0 0.001,0c1.565,0 3.065,0.627 4.164,1.742c1.098,1.114 1.704,2.623 1.682,4.188c-0.026,1.805 -0.056,3.877 -0.084,5.836Z" style="fill:#43a047;fill-rule:nonzero;"/><path d="M349.193,146.959c-10.435,0 -18.93,-3.201 -25.485,-9.602c-6.554,-6.402 -9.832,-14.93 -9.832,-25.584l0,-1.841c0,-7.147 1.381,-13.538 4.143,-19.172c2.763,-5.634 6.676,-9.975 11.74,-13.022c5.064,-3.047 10.841,-4.571 17.33,-4.571c9.733,0 17.395,3.07 22.986,9.208c5.59,6.138 8.385,14.841 8.385,26.11c0,0 0,0 0,0.001c0,2.058 -0.818,4.031 -2.273,5.486c-1.455,1.456 -3.429,2.273 -5.487,2.273c-10.678,0 -29.286,0 -35.481,0c-0.532,0 -1.034,0.241 -1.366,0.656c-0.332,0.415 -0.458,0.958 -0.342,1.477c0.864,3.667 2.588,6.684 5.192,9.048c3.092,2.806 7.005,4.209 11.74,4.209c5.185,0 9.568,-1.33 13.148,-3.991c2.59,-1.895 6.194,-1.514 8.332,0.879c0.007,-0.007 0.008,-0.006 0.008,-0.006c1.536,1.719 2.269,4.01 2.016,6.302c-0.252,2.292 -1.466,4.368 -3.339,5.712c-1.595,1.145 -3.339,2.16 -5.236,3.041c-4.867,2.258 -10.26,3.387 -16.179,3.387Zm-2.17,-58.468c-3.771,0 -6.829,1.277 -9.175,3.832c-1.987,2.163 -3.368,5.117 -4.144,8.861c-0.107,0.513 0.023,1.046 0.353,1.452c0.33,0.406 0.825,0.642 1.349,0.642c5.128,0.011 18.364,0.011 22.858,0.011c0.838,0 1.518,-0.68 1.518,-1.518c0,-0.001 0,-0.002 0,-0.002c-0.088,-4.227 -1.228,-7.497 -3.42,-9.81c-2.192,-2.312 -5.305,-3.468 -9.339,-3.468Z" style="fill:#43a047;fill-rule:nonzero;"/><path d="M417.293,146.959c-10.436,0 -18.931,-3.201 -25.485,-9.602c-6.555,-6.402 -9.833,-14.93 -9.833,-25.584l0,-1.841c0,-7.147 1.381,-13.538 4.144,-19.172c2.762,-5.634 6.675,-9.975 11.739,-13.022c5.064,-3.047 10.841,-4.571 17.33,-4.571c9.734,0 17.395,3.07 22.986,9.208c5.59,6.138 8.385,14.841 8.385,26.11c0,0 0,0 0,0.001c0,2.058 -0.817,4.031 -2.273,5.486c-1.455,1.456 -3.429,2.273 -5.487,2.273c-10.678,0 -29.286,0 -35.481,0c-0.531,0 -1.034,0.241 -1.366,0.656c-0.332,0.415 -0.458,0.958 -0.341,1.477c0.863,3.667 2.588,6.684 5.192,9.048c3.091,2.806 7.004,4.209 11.739,4.209c5.185,0 9.568,-1.33 13.148,-3.991c2.59,-1.895 6.195,-1.514 8.332,0.879c0.008,-0.007 0.008,-0.006 0.008,-0.006c1.536,1.719 2.269,4.01 2.016,6.302c-0.252,2.292 -1.466,4.368 -3.339,5.712c-1.594,1.145 -3.338,2.16 -5.236,3.041c-4.866,2.258 -10.259,3.387 -16.178,3.387Zm-2.171,-58.468c-3.771,0 -6.829,1.277 -9.174,3.832c-1.987,2.163 -3.369,5.117 -4.145,8.861c-0.107,0.513 0.023,1.046 0.353,1.452c0.33,0.406 0.826,0.642 1.349,0.642c5.128,0.011 18.365,0.011 22.858,0.011c0.838,0 1.518,-0.68 1.518,-1.518c0,-0.001 0,-0.002 0,-0.002c-0.088,-4.227 -1.228,-7.497 -3.42,-9.81c-2.192,-2.312 -5.305,-3.468 -9.339,-3.468Z" style="fill:#43a047;fill-rule:nonzero;"/><path d="M460.967,75.798c3.932,0 7.196,3.037 7.478,6.959c0,0.001 0,0.002 0,0.003c0.015,0.206 0.153,0.383 0.35,0.448c0.197,0.065 0.413,0.005 0.548,-0.151c4.991,-5.717 11.54,-8.574 19.647,-8.574c7.541,0 12.279,2.214 15.962,6.642c3.683,4.429 5.568,11.049 5.656,19.862c0,0 0,23.513 0,36.907c0,2.404 -0.955,4.71 -2.655,6.41c-1.7,1.7 -4.006,2.655 -6.41,2.655c-0.001,0 -0.002,0 -0.003,0c-2.404,0 -4.71,-0.955 -6.41,-2.655c-1.7,-1.7 -2.655,-4.006 -2.655,-6.41c0,-13.275 0,-36.446 0,-36.446c0,-4.034 -0.876,-6.961 -2.63,-8.78c-1.754,-1.82 -4.67,-2.73 -8.747,-2.73c-0.001,0 -0.001,0 -0.002,0c-6.646,0.001 -12.034,5.389 -12.034,12.035c0,8.368 0,24.957 0,35.484c0,5.248 -4.254,9.502 -9.502,9.502c-0.001,0 -0.002,0 -0.003,0c-5.248,0 -9.502,-4.254 -9.502,-9.502c0,-13.836 0,-39.34 0,-52.802c0,-2.349 0.933,-4.602 2.594,-6.263c1.661,-1.661 3.914,-2.594 6.263,-2.594c0.69,0 1.38,0 2.055,0Z" style="fill:#43a047;fill-rule:nonzero;"/><path d="M551.746,109.3c-0.287,-0.618 -0.906,-1.013 -1.587,-1.013c-2.699,0 -9.598,0 -12.852,0c-0.966,0 -1.75,0.784 -1.75,1.75c0,4.686 0,17.797 0,27.058c0,2.616 -1.039,5.125 -2.889,6.975c-1.85,1.85 -4.359,2.889 -6.975,2.889c0,0 -0.001,0 -0.002,0c-2.616,0 -5.125,-1.039 -6.975,-2.889c-1.85,-1.85 -2.889,-4.359 -2.889,-6.975c0,-19.413 0,-62.293 0,-80.765c0,-4.83 3.916,-8.746 8.746,-8.746c10.535,0 26.834,0 26.834,0c11.312,0 20.038,2.521 26.176,7.563c6.138,5.042 9.207,12.167 9.207,21.375c0,6.532 -1.414,11.98 -4.242,16.343c-2.567,3.961 -6.337,7.19 -11.308,9.687c-0.85,0.424 -1.205,1.45 -0.798,2.308c2.155,4.555 8.573,18.084 13.557,28.59c1.39,2.929 1.182,6.367 -0.552,9.107c-1.733,2.74 -4.749,4.402 -7.991,4.402c-0.064,0 -0.127,0 -0.19,0c-3.681,0 -7.027,-2.136 -8.577,-5.474c-4.326,-9.317 -12.854,-27.685 -14.943,-32.185Zm-16.189,-18.743c0,0.966 0.784,1.749 1.75,1.749c4.134,0 14.166,0 14.166,0c4.955,0 8.791,-1.261 11.509,-3.782c2.719,-2.521 4.078,-5.996 4.078,-10.424c0,-4.516 -1.282,-8.068 -3.847,-10.654c-2.565,-2.587 -6.5,-3.881 -11.806,-3.881c0,0 -9.978,0 -14.1,0c-0.966,0 -1.75,0.783 -1.75,1.75c0,5.132 0,20.109 0,25.242Z" style="fill:#43a047;fill-rule:nonzero;"/><path d="M613.661,109.603c-0.966,0 -1.749,0.783 -1.749,1.749c0,4.52 0,16.858 0,25.743c0,5.447 -4.416,9.864 -9.864,9.864c-0.001,0 -0.001,0 -0.002,0c-2.616,0 -5.125,-1.039 -6.975,-2.889c-1.85,-1.85 -2.889,-4.359 -2.889,-6.975c0,-19.413 0,-62.293 0,-80.765c0,-2.32 0.921,-4.544 2.562,-6.185c1.64,-1.64 3.864,-2.561 6.184,-2.561c11.041,0 28.61,0 28.61,0c7.19,0 13.515,1.315 18.974,3.946c5.459,2.631 9.657,6.368 12.594,11.213c2.938,4.845 4.407,10.359 4.407,16.541c0,9.383 -3.212,16.782 -9.635,22.196c-6.423,5.415 -15.313,8.123 -26.669,8.123c0,0 -11.153,0 -15.548,0Zm-1.749,-17.731c0,0.966 0.783,1.749 1.749,1.749c4.455,0 15.877,0 15.877,0c5.217,0 9.196,-1.228 11.937,-3.683c2.74,-2.455 4.11,-5.963 4.11,-10.523c0,-4.691 -1.381,-8.484 -4.143,-11.377c-2.762,-2.894 -6.577,-4.385 -11.444,-4.473c0,0 -11.799,0 -16.337,0c-0.464,0 -0.908,0.185 -1.237,0.513c-0.328,0.328 -0.512,0.773 -0.512,1.237c0,5.316 0,21.241 0,26.557Z" style="fill:#43a047;fill-rule:nonzero;"/><path d="M689.165,137.424c0,5.266 -4.269,9.535 -9.536,9.535c0,0 -0.001,0 -0.002,0c-5.266,0 -9.535,-4.269 -9.535,-9.535c0,-13.614 0,-38.477 0,-52.091c0,-5.266 4.269,-9.535 9.535,-9.535c0.001,0 0.002,0 0.002,0c5.267,0 9.536,4.269 9.536,9.535c0,13.614 0,38.477 0,52.091Zm-20.191,-80.041c0,-2.85 0.954,-5.196 2.861,-7.037c1.907,-1.841 3.63,-2.762 6.919,-2.762c3.244,0 5.831,0.921 7.76,2.762c1.929,1.841 2.894,4.187 2.894,7.037c0,2.894 -0.976,5.262 -2.927,7.103c-1.951,1.842 -4.527,2.762 -7.727,2.762c-3.201,0 -4.902,-0.92 -6.853,-2.762c-1.952,-1.841 -2.927,-4.209 -2.927,-7.103Z" style="fill:#43a047;fill-rule:nonzero;"/></g></svg>