<svg height="512pt" viewBox="-40 0 512 512.00013" width="512pt" xmlns="http://www.w3.org/2000/svg"><path d="m107.753906 290.96875c-27.253906 0-52.921875-9.023438-72.28125-25.40625-21.882812-18.515625-34.09375-44.914062-35.3125-76.332031-.1054685-2.722657-.160156-5.480469-.160156-8.199219 0-46.6875 15.132812-90.792969 43.761719-127.546875 2.585937-3.320313 7.375-3.917969 10.695312-1.332031 3.320313 2.585937 3.914063 7.375 1.328125 10.695312-26.523437 34.054688-40.542968 74.921875-40.542968 118.183594 0 2.523438.046874 5.082031.144531 7.605469 1.050781 27.03125 11.398437 49.609375 29.929687 65.292969 16.609375 14.054687 38.785156 21.796874 62.4375 21.796874 23.65625 0 45.828125-7.742187 62.441406-21.796874 18.527344-15.683594 28.878907-38.261719 29.929688-65.292969.097656-2.523438.144531-5.082031.144531-7.605469 0-34.410156-9.1875-68.171875-26.566406-97.640625-16.125-27.335937-38.863281-50.390625-65.949219-66.90625-12.035156 7.339844-23.273437 16.007813-33.453125 25.804687-3.03125 2.917969-7.855469 2.824219-10.773437-.207031-2.917969-3.03125-2.824219-7.855469.207031-10.773437 12.132813-11.679688 25.660156-21.867188 40.203125-30.285156 2.363281-1.363282 5.273438-1.367188 7.636719 0 31.027343 17.957031 57.050781 43.761718 75.253906 74.625 18.765625 31.8125 28.683594 68.253906 28.683594 105.382812 0 2.71875-.054688 5.476562-.160157 8.199219-1.21875 31.417969-13.429687 57.8125-35.3125 76.332031-19.359374 16.382812-45.03125 25.40625-72.285156 25.40625zm0 0"/><path d="m341.023438 386.070312c-16.164063 0-32.339844-3.890624-46.578126-11.703124-27.054687-14.835938-42.65625-41.105469-43.933593-73.960938-.089844-2.257812-.132813-4.558594-.132813-6.847656 0-31.015625 8.285156-61.457032 23.960938-88.035156 15.207031-25.777344 36.945312-47.332032 62.863281-62.332032 2.359375-1.367187 5.273437-1.367187 7.632813 0 25.921874 15 47.65625 36.554688 62.863281 62.332032 15.675781 26.578124 23.960937 57.019531 23.960937 88.035156 0 2.273437-.042968 4.578125-.132812 6.847656-.785156 20.199219-6.859375 37.726562-18.0625 52.09375-2.585938 3.316406-7.375 3.910156-10.695313 1.324219-3.316406-2.589844-3.910156-7.378907-1.324219-10.695313 9.199219-11.796875 14.195313-26.367187 14.855469-43.3125.078125-2.074218.121094-4.179687.121094-6.257812 0-28.292969-7.554687-56.058594-21.847656-80.289063-13.125-22.25-31.582031-41.050781-53.554688-54.605469-21.972656 13.554688-40.429687 32.355469-53.554687 54.605469-14.289063 24.230469-21.847656 51.996094-21.847656 80.289063 0 2.089844.042968 4.195312.121093 6.257812 1.0625 27.296875 13.859375 49.027344 36.035157 61.191406 24.230468 13.289063 56.464843 12.898438 80.210937-.972656 3.636719-2.121094 8.300781-.898437 10.425781 2.734375 2.121094 3.636719.894532 8.300781-2.738281 10.425781-14.679687 8.570313-31.65625 12.875-48.648437 12.875zm0 0"/><path d="m164.230469 512c-18.828125 0-36.578125-6.246094-49.984375-17.59375-15.191406-12.855469-23.667969-31.144531-24.511719-52.886719-.074219-1.851562-.109375-3.730469-.109375-5.585937 0-50.351563 27.125-97.328125 70.789062-122.59375 2.359376-1.367188 5.273438-1.367188 7.632813 0 43.664063 25.265625 70.789063 72.242187 70.789063 122.59375 0 1.847656-.039063 3.726562-.109376 5.582031-.84375 21.746094-9.320312 40.035156-24.511718 52.890625-13.40625 11.34375-31.15625 17.59375-49.984375 17.59375zm0-183.171875c-36.726563 23.03125-59.363281 63.660156-59.363281 107.105469 0 1.660156.03125 3.339844.09375 4.992187.675781 17.355469 7.289062 31.828125 19.128906 41.847657 10.660156 9.019531 24.914062 13.984374 40.140625 13.984374 15.226562 0 29.480469-4.964843 40.136719-13.984374 11.839843-10.019532 18.457031-24.492188 19.128906-41.847657.066406-1.660156.097656-3.339843.097656-4.992187 0-43.445313-22.636719-84.074219-59.363281-107.105469zm0 0"/></svg>