<?xml version="1.0" encoding="UTF-8" standalone="no"?><!DOCTYPE svg PUBLIC "-//W3C//DTD SVG 1.1//EN" "http://www.w3.org/Graphics/SVG/1.1/DTD/svg11.dtd"><svg width="100%" height="100%" viewBox="0 0 512 512" version="1.1" xmlns="http://www.w3.org/2000/svg" xmlns:xlink="http://www.w3.org/1999/xlink" xml:space="preserve" xmlns:serif="http://www.serif.com/" style="fill-rule:evenodd;clip-rule:evenodd;stroke-linejoin:round;stroke-miterlimit:1.41421;"><path d="M423.398,422.641c4.2,0 7.602,3.406 7.602,7.605c0,4.199 -3.402,7.602 -7.602,7.602l-334.8,0c-4.2,0 -7.606,-3.403 -7.606,-7.602c0,-4.199 3.406,-7.605 7.606,-7.605l334.8,0Zm21.29,-36.496c4.199,0 7.605,3.402 7.605,7.601c0,4.199 -3.406,7.605 -7.606,7.606l-80.839,0c-4.2,0 -7.602,-3.407 -7.602,-7.606c0,-4.199 3.402,-7.601 7.602,-7.601l80.839,0Zm-111.257,0c4.203,0 7.605,3.402 7.605,7.601c0,4.203 -3.402,7.605 -7.605,7.606l-266.125,0c-4.2,0 -7.602,-3.407 -7.602,-7.606c0,-4.199 3.402,-7.601 7.602,-7.601l266.125,0Zm-197.692,-36.5c4.2,0 7.606,3.406 7.606,7.605c0,4.199 -3.406,7.605 -7.606,7.605l-95.804,0c-4.2,0 -7.606,-3.406 -7.606,-7.605c0,-4.199 3.406,-7.605 7.606,-7.605l95.804,0Zm336.325,0c4.199,0 7.601,3.406 7.601,7.605c0,4.199 -3.402,7.605 -7.601,7.605l-305.907,0c-4.199,0 -7.605,-3.406 -7.605,-7.605c0,-4.199 3.406,-7.605 7.605,-7.605l305.907,0Zm-391.449,-125.491l1.466,9.164c0.63,3.943 -1.979,7.675 -5.899,8.437c-0.001,0 -0.002,0.001 -0.002,0.001c-2.074,0.403 -4.223,-0.047 -5.961,-1.247c-1.738,-1.201 -2.919,-3.052 -3.275,-5.134c-2.699,-14.187 -2.94,-18.072 -2.94,-22.705c0,-14.895 6.899,-28.893 18.378,-38.016c-16.33,-30.758 -26.191,-47.111 -4.5,-80.313c2.033,-3.111 6.035,-4.262 9.413,-2.71c0.559,0.255 10.52,4.905 20.238,13.562c7.016,-16.922 19.792,-28.526 20.463,-29.127c2.848,-2.552 7.16,-2.552 10.008,0c0.671,0.601 13.447,12.202 20.463,29.127c9.721,-8.655 19.682,-13.304 20.238,-13.562c3.378,-1.552 7.38,-0.398 9.413,2.713c2.555,3.908 4.67,7.576 6.396,11.06c1.713,-3.493 3.82,-7.16 6.366,-11.06c2.033,-3.111 6.038,-4.265 9.413,-2.713c0.559,0.258 10.52,4.907 20.238,13.562c7.016,-16.922 19.795,-28.526 20.466,-29.127c2.848,-2.549 7.157,-2.549 10.005,0c0.671,0.601 13.447,12.202 20.463,29.13c9.721,-8.658 19.682,-13.307 20.241,-13.565c3.375,-1.552 7.38,-0.398 9.413,2.713c2.552,3.908 4.67,7.576 6.393,11.063c1.714,-3.493 3.82,-7.163 6.369,-11.063c2.033,-3.111 6.035,-4.265 9.413,-2.713c0.556,0.258 10.517,4.907 20.238,13.565c7.013,-16.922 19.792,-28.529 20.463,-29.13c2.848,-2.549 7.157,-2.549 10.008,0c0.671,0.601 13.444,12.205 20.461,29.13c9.72,-8.658 19.684,-13.307 20.24,-13.562c3.375,-1.555 7.38,-0.401 9.413,2.71c21.609,33.076 12.191,48.747 -4.502,80.31c11.481,9.12 18.383,23.118 18.383,38.016c0,6.932 -0.271,5.857 -11.299,62.008c-0.799,4.066 -4.704,6.744 -8.784,6.024c-0.001,0 -0.002,0 -0.002,0c-1.94,-0.342 -3.661,-1.45 -4.775,-3.074c-1.115,-1.625 -1.529,-3.629 -1.15,-5.562c1.462,-7.456 3.513,-17.913 3.513,-17.913l-31.502,0c-4.143,0 -7.5,-3.36 -7.5,-7.5c0,-4.142 3.357,-7.499 7.5,-7.5l34.444,0c3.597,-19.203 4.555,-21.081 4.555,-26.483c0,-18.311 -14.838,-33.516 -33.518,-33.516l-39.462,0c-17.352,0 -32.821,13.125 -34.795,30l38.776,0c4.143,0 7.5,3.357 7.5,7.5c0,4.139 -3.357,7.5 -7.5,7.5l-37.388,0l11.772,59.999l40.616,0c4.143,0 7.5,3.357 7.5,7.5c0,4.139 -3.357,7.5 -7.5,7.5l-37.675,0l2.745,13.999l69.833,0l2.224,-13.123c0.354,-2.092 1.529,-3.956 3.263,-5.179c1.734,-1.223 3.884,-1.703 5.974,-1.335c0.001,0 0.001,0 0.002,0c3.79,0.669 6.33,4.272 5.687,8.066c-0.595,3.868 -1.21,8.093 -1.847,11.571l75.191,0c4.203,0 7.605,3.407 7.605,7.606c0,4.199 -3.402,7.605 -7.605,7.605l-496.79,0c-4.199,0 -7.605,-3.406 -7.605,-7.605c0,-4.199 3.406,-7.606 7.605,-7.606l75.183,0c-5.31,-27.057 -3.553,-18.075 -3.938,-20.073c-2.256,-11.743 -4.17,-21.576 -5.795,-29.843c-0.379,-1.929 0.024,-3.93 1.122,-5.561c1.097,-1.631 2.799,-2.759 4.729,-3.134c0.001,0 0.002,0 0.003,-0.001c4.081,-0.793 8.033,1.868 8.833,5.947l4.643,23.666l40.617,0c4.142,0 7.5,3.357 7.5,7.5c0,4.139 -3.358,7.5 -7.5,7.5l-37.675,0l2.745,13.999l69.86,0l11.572,-58.999l-31.502,0c-4.143,0 -7.5,-3.36 -7.5,-7.5c0,-4.142 3.357,-7.499 7.5,-7.5l34.443,0c3.598,-19.203 4.556,-21.081 4.556,-26.483c0,-18.311 -14.839,-33.516 -33.518,-33.516l-40.962,0c-17.265,0 -31.511,13.043 -33.313,30l38.794,0c4.143,0 7.5,3.357 7.5,7.5c0,4.139 -3.357,7.5 -7.5,7.5l-37.388,0Zm102.602,88.998l22.57,0c-2.619,-13.351 -9.249,-47.143 -11.285,-57.528l-11.285,57.528Zm93.265,-133.998l-40.962,0c-17.262,0 -31.511,13.043 -33.313,30l38.794,0c4.143,0 7.5,3.357 7.5,7.5c0,4.139 -3.357,7.5 -7.5,7.5l-37.388,0l11.771,59.999l40.617,0c4.143,0 7.5,3.357 7.5,7.5c0,4.139 -3.357,7.5 -7.5,7.5l-37.675,0l2.745,13.999l69.86,0l11.572,-58.999l-31.502,0c-4.143,0 -7.5,-3.36 -7.5,-7.5c0,-4.142 3.357,-7.499 7.5,-7.5l34.444,0c3.597,-19.203 4.555,-21.081 4.555,-26.483c0,-18.311 -14.838,-33.516 -33.518,-33.516Zm29.733,133.998l22.57,0c-2.619,-13.351 -9.249,-47.143 -11.285,-57.528l-11.285,57.528Zm-57.714,-66.499c0,4.14 -3.357,7.5 -7.5,7.5c-4.142,0 -7.5,-3.36 -7.5,-7.5c0,-4.142 3.358,-7.5 7.5,-7.5c4.143,0 7.5,3.358 7.5,7.5Zm-122.998,0c0,4.14 -3.357,7.5 -7.5,7.5c-4.142,0 -7.5,-3.36 -7.5,-7.5c0,-4.142 3.358,-7.5 7.5,-7.5c4.143,0 7.5,3.358 7.5,7.5Zm245.996,0c0,4.14 -3.357,7.5 -7.5,7.5c-4.142,0 -7.5,-3.36 -7.5,-7.5c0,-4.142 3.358,-7.5 7.5,-7.5c4.143,0 7.5,3.358 7.5,7.5Zm-54.022,-93.341c3.038,6.779 7.063,14.103 11.17,21.849c-4.324,3.422 -8.009,7.483 -10.93,11.977c-2.93,-4.738 -6.677,-8.971 -11.101,-12.484c3.791,-7.165 7.887,-14.727 10.861,-21.342Zm-122.998,0c2.912,6.495 6.603,13.248 10.904,21.345c-4.316,3.428 -7.984,7.541 -10.881,12.135c-2.897,-4.597 -6.568,-8.713 -10.884,-12.14c3.791,-7.163 7.887,-14.725 10.861,-21.34Zm138.34,-44.838c4.632,2.845 11.183,7.511 16.394,13.699c-1.034,11.396 2.833,31.496 6.173,42.204c-4.696,0.44 -9.319,1.553 -13.734,3.293c-14.259,-26.865 -21.131,-37.382 -8.833,-59.196Zm-122.998,0c4.632,2.845 11.182,7.511 16.394,13.699c-1.028,11.317 2.795,31.321 6.135,42.084c-4.769,0.311 -9.463,1.327 -13.916,3c-14.147,-26.636 -20.835,-37.104 -8.613,-58.783Zm-122.998,0c4.632,2.845 11.182,7.511 16.394,13.699c-1.028,11.317 2.795,31.321 6.135,42.084c-4.77,0.311 -9.463,1.327 -13.916,3c-14.147,-26.636 -20.836,-37.104 -8.613,-58.783Zm215.367,-0.006c12.137,21.401 5.821,31.479 -8.628,58.786c-4.45,-1.67 -9.141,-2.686 -13.91,-2.997c3.325,-10.705 7.166,-30.726 6.138,-42.084c5.214,-6.193 11.768,-10.86 16.4,-13.705Zm-122.998,0c12.137,21.401 5.821,31.479 -8.628,58.786c-4.45,-1.67 -9.141,-2.686 -13.91,-2.997c3.325,-10.705 7.166,-30.726 6.137,-42.084c5.215,-6.193 11.769,-10.86 16.401,-13.705Zm245.996,0c12.137,21.401 5.821,31.479 -8.628,58.786c-4.45,-1.67 -9.14,-2.686 -13.91,-2.997c3.325,-10.705 7.166,-30.726 6.138,-42.084c5.214,-6.193 11.768,-10.86 16.4,-13.705Zm-38.335,55.687c3.557,-8.916 8.423,-32.147 6.706,-43.019c-1.901,-12.135 -9.407,-22.641 -14.548,-28.62c-5.148,6.003 -12.68,16.553 -14.569,28.608c-1.752,11.057 3.216,34.286 6.703,43.031l15.708,0Zm-122.998,0c3.557,-8.916 8.423,-32.147 6.706,-43.019c-1.901,-12.135 -9.407,-22.641 -14.548,-28.62c-5.148,6.003 -12.68,16.553 -14.569,28.608c-1.752,11.057 3.216,34.286 6.703,43.031l15.708,0Zm-122.998,0c3.557,-8.916 8.423,-32.147 6.706,-43.019c-1.901,-12.135 -9.407,-22.641 -14.548,-28.62c-5.148,6.003 -12.68,16.553 -14.57,28.608c-1.751,11.057 3.217,34.286 6.704,43.031l15.708,0Z"/></svg>