<?xml version="1.0" encoding="UTF-8" standalone="no"?><!DOCTYPE svg PUBLIC "-//W3C//DTD SVG 1.1//EN" "http://www.w3.org/Graphics/SVG/1.1/DTD/svg11.dtd"><svg width="100%" height="100%" viewBox="0 0 512 512" version="1.1" xmlns="http://www.w3.org/2000/svg" xmlns:xlink="http://www.w3.org/1999/xlink" xml:space="preserve" xmlns:serif="http://www.serif.com/" style="fill-rule:evenodd;clip-rule:evenodd;stroke-linejoin:round;stroke-miterlimit:1.41421;"><path d="M330.518,291.012c30.465,23.223 48.539,59.535 48.539,97.933c0,67.852 -55.203,123.055 -123.059,123.055c-67.852,0 -123.055,-55.203 -123.055,-123.055c0,-38.394 18.075,-74.711 48.536,-97.933l0,-216.492c0,-41.09 33.429,-74.52 74.519,-74.52c41.09,0 74.52,33.43 74.52,74.52l0,54.003c0,4.2 -3.403,7.606 -7.606,7.606c-4.199,0 -7.601,-3.406 -7.601,-7.606l0,-54.003c0,-32.704 -26.61,-59.313 -59.313,-59.313c-32.703,0 -59.309,26.609 -59.309,59.313l0,220.332c0,2.461 -1.191,4.765 -3.191,6.191c-28.394,20.23 -45.348,53.09 -45.348,87.902c0,59.465 48.383,107.848 107.848,107.848c59.469,0 107.848,-48.383 107.848,-107.848c0,-34.812 -16.95,-67.672 -45.344,-87.902c-2.004,-1.426 -3.191,-3.73 -3.191,-6.191l0,-135.911c0,-4.199 3.402,-7.601 7.601,-7.601c4.203,0 7.606,3.402 7.606,7.601l0,132.071Zm-74.52,165.226c37.106,0 67.293,-30.188 67.293,-67.293c0,-21.726 -10.586,-42.238 -28.32,-54.871l-17.024,-12.129c-2.004,-1.425 -3.191,-3.734 -3.191,-6.191l0,-29.359l-37.512,0l0,29.359c0,2.457 -1.191,4.766 -3.195,6.191l-17.02,12.129c-17.734,12.633 -28.324,33.145 -28.324,54.871c0,13.457 3.981,26.457 11.504,37.586c2.352,3.481 1.441,8.207 -2.039,10.559c-3.481,2.351 -8.207,1.437 -10.559,-2.039c-9.234,-13.656 -14.113,-29.598 -14.113,-46.106c0,-26.632 12.973,-51.773 34.707,-67.257l13.828,-9.852l0,-237.316c0,-18.731 15.238,-33.965 33.965,-33.965c18.731,0 33.965,15.234 33.965,33.965l0,237.316l13.832,9.851c21.73,15.485 34.707,40.625 34.707,67.258c0,45.493 -37.012,82.5 -82.504,82.5c-17.008,0 -33.352,-5.156 -47.266,-14.914c-3.441,-2.41 -4.273,-7.152 -1.863,-10.59c2.41,-3.441 7.156,-4.273 10.594,-1.859c11.344,7.953 24.668,12.156 38.535,12.156Zm18.758,-185.051l0,-42.89l-37.512,0l0,42.89l37.512,0Zm0,-58.101l0,-42.891l-37.512,0l0,42.891l37.512,0Zm0,-58.098l0,-42.89l-37.512,0l0,42.89l37.512,0Zm0,-58.097l0,-22.371c0,-10.344 -8.414,-18.758 -18.758,-18.758c-10.34,0 -18.754,8.414 -18.754,18.758l0,22.371l37.512,0Z" style="fill-rule:nonzero;"/></svg>